<?xml version="1.0" encoding="UTF-8" standalone="no"?><!DOCTYPE svg PUBLIC "-//W3C//DTD SVG 1.1//EN" "http://www.w3.org/Graphics/SVG/1.1/DTD/svg11.dtd"><svg width="100%" height="100%" viewBox="0 0 40 40" version="1.1" xmlns="http://www.w3.org/2000/svg" xmlns:xlink="http://www.w3.org/1999/xlink" xml:space="preserve" xmlns:serif="http://www.serif.com/" style="fill-rule:evenodd;clip-rule:evenodd;stroke-linecap:round;stroke-linejoin:round;stroke-miterlimit:1.5;"><path d="M6.748,25.841c0,0 -2.058,9.058 13.252,3.57" style="fill:#99ffa6;stroke:#fff;stroke-width:1px;"/><path d="M33.252,25.841c0,0 2.058,9.058 -13.252,3.57" style="fill:#99ffa6;stroke:#fff;stroke-width:1px;"/><path d="M11.325,28.509c0,0 1.77,6.85 8.675,0.902" style="fill:#99ffa6;stroke:#fff;stroke-width:1px;"/><path d="M28.675,28.509c0,0 -1.77,6.85 -8.675,0.902" style="fill:#99ffa6;stroke:#fff;stroke-width:1px;"/><path d="M15.663,28.509c2.891,5.032 5.783,4.993 8.674,0" style="fill:#99ffa6;stroke:#fff;stroke-width:1px;"/><path d="M9.177,18.571c-5.195,-0.166 -6.527,1.532 -6.527,1.532c0,0 1.357,9.074 17.35,9.308" style="fill:#f3ccff;stroke:#fff;stroke-width:1px;"/><path d="M15.859,14.408c-3.733,-2.987 -7.818,-2.514 -7.818,-2.514c0,0 0.488,16.414 11.959,17.517" style="fill:#f3ccff;stroke:#fff;stroke-width:1px;"/><path d="M20,29.411c0,0 -13.958,-2.083 0,-21.679" style="fill:#f3ccff;stroke:#fff;stroke-width:1px;stroke-linecap:butt;"/><path d="M30.823,18.571c5.195,-0.166 6.527,1.532 6.527,1.532c0,0 -1.357,9.074 -17.35,9.308" style="fill:#4d4d4d;stroke:#fff;stroke-width:1px;"/><path d="M24.141,14.408c3.733,-2.987 7.818,-2.514 7.818,-2.514c0,0 -0.488,16.414 -11.959,17.517" style="fill:#4d4d4d;stroke:#fff;stroke-width:1px;"/><path d="M20,29.411c0,0 13.958,-2.083 0,-21.679" style="fill:#4d4d4d;stroke:#fff;stroke-width:1px;"/></svg>